<svg width="100" height="31" viewBox="0 0 100 31" fill="none" xmlns="http://www.w3.org/2000/svg">
<path d="M4.72913 16.7046L11.2342 30.6282C11.4294 31.046 12.0241 31.0443 12.2168 30.6254L18.6728 16.5945C18.8638 16.1794 18.8638 15.7017 18.6728 15.2866L12.2168 1.25573C12.0241 0.836839 11.4294 0.835108 11.2342 1.25286L4.72913 15.1765C4.50289 15.6607 4.50289 16.2204 4.72913 16.7046Z" fill="#75259B"/>
<path d="M21.5182 3.97837L20.4816 6.19713C20.3314 6.51873 20.3303 6.89016 20.4787 7.21263L23.9728 14.8065C24.1201 15.1267 24.1201 15.4953 23.9728 15.8156L20.4787 23.4094C20.3303 23.7319 20.3314 24.1033 20.4816 24.4249L21.5182 26.6437C21.6688 26.966 22.1277 26.9647 22.2764 26.6415L27.2577 15.8156C27.405 15.4953 27.405 15.1267 27.2577 14.8065L22.2764 3.98058C22.1277 3.65737 21.6688 3.65603 21.5182 3.97837Z" fill="#75259B"/>
<path d="M28.8864 21.8846L32.8864 14.8846L28.8864 7.88463L37.9716 8.73078C38.9849 8.73078 39.8206 8.87902 40.4787 9.17549C41.1368 9.46796 41.6269 9.86259 41.9489 10.3594C42.2708 10.8522 42.4318 11.3991 42.4318 12C42.4318 12.5289 42.3206 12.9656 42.098 13.3101C41.8802 13.6547 41.5914 13.9271 41.2315 14.1274C40.8764 14.3277 40.4905 14.476 40.0739 14.5721V14.6923C40.5189 14.7164 40.9664 14.8486 41.4162 15.089C41.866 15.3293 42.2424 15.6739 42.5455 16.1226C42.8485 16.5713 43 17.1202 43 17.7692C43 18.3862 42.8343 18.9411 42.5028 19.4339C42.1714 19.9267 41.6482 20.3173 40.9332 20.6058C40.2183 20.8942 39.2879 21.0385 38.142 21.0385L28.8864 21.8846ZM33.6477 19.7164H38.142C39.2926 19.7164 40.1094 19.5281 40.5923 19.1515C41.08 18.7708 41.3239 18.3101 41.3239 17.7692C41.3239 17.3526 41.1984 16.968 40.9474 16.6154C40.6965 16.2588 40.339 15.9744 39.875 15.762C39.411 15.5457 38.8617 15.4375 38.2273 15.4375H34.6477L33.6477 19.7164ZM34.6477 14.1394H37.9148C38.4451 14.1394 38.9233 14.0513 39.3494 13.875C39.7803 13.6987 40.1212 13.4503 40.3722 13.1298C40.6278 12.8093 40.7557 12.4327 40.7557 12C40.7557 11.4591 40.5331 11.0004 40.0881 10.6238C39.643 10.2432 38.9375 10.0529 37.9716 10.0529H33.6477L34.6477 14.1394Z" fill="#70259B"/>
<path d="M44.8942 21.0385V8.73078H50.809C51.9453 8.73078 52.8781 8.89504 53.6072 9.22357C54.3364 9.54809 54.8762 9.9948 55.2266 10.5637C55.5769 11.1326 55.7521 11.7797 55.7521 12.5048C55.7521 13.23 55.5769 13.873 55.2266 14.4339C54.8762 14.9948 54.3388 15.4355 53.6144 15.756C52.8899 16.0725 51.9643 16.2308 50.8374 16.2308H46.8601V14.8846H50.7805C51.5571 14.8846 52.1821 14.7885 52.6555 14.5962C53.1338 14.4039 53.4794 14.1314 53.6925 13.7789C53.9103 13.4223 54.0192 12.9976 54.0192 12.5048C54.0192 12.012 53.9103 11.5813 53.6925 11.2128C53.4747 10.8442 53.1267 10.5597 52.6484 10.3594C52.1702 10.1551 51.5381 10.0529 50.7521 10.0529H47.6555V21.0385H44.8942ZM52.7408 15.5096L56.3203 21.0385H54.2749L50.7521 15.5096H52.7408Z" fill="#70259B"/>
<path d="M59.2837 21.0385H56.4371L61.7781 8.73078H64.5962L69.9371 21.0385H68.0906L63.744 10.6779H63.6303L59.2837 21.0385ZM59.9656 16.2308H67.4087V17.5529H59.9656V16.2308Z" fill="#70259B"/>
<path d="M82.7369 8.73078V21.0385H81.0323L73.1062 11.375H72.9641V21.0385H70.2028V8.73078H72.9073L80.8619 18.4183H81.0039V8.73078H82.7369Z" fill="#70259B"/>
<path d="M89.75 21.0385H84.2614V8.73078H89.9489C91.3599 8.73078 92.5672 8.97718 93.571 9.46997C94.5748 9.95875 95.3442 10.6619 95.8793 11.5793C96.4143 12.4928 96.6818 13.5866 96.6818 14.8606C96.6818 16.1426 96.4119 17.2464 95.8722 18.1719C95.3324 19.0934 94.5464 19.8025 93.5142 20.2993C92.482 20.7921 91.2273 21.0385 89.75 21.0385ZM87.0227 19.7164H89.6364C90.839 19.7164 91.8357 19.52 92.6264 19.1274C93.4171 18.7348 94.0066 18.1759 94.3949 17.4507C94.7831 16.7256 94.9773 15.8622 94.9773 14.8606C94.9773 13.867 94.7855 13.0116 94.402 12.2945C94.0185 11.5733 93.4456 11.0204 92.6832 10.6358C91.9209 10.2472 90.9716 10.0529 89.8352 10.0529H87.0227V19.7164Z" fill="#70259B"/>
</svg>
